<svg xmlns="http://www.w3.org/2000/svg" viewBox="0 0 1200 1080" role="img" aria-label="A refined workspace composition">
  <defs>
    <linearGradient id="bg" x1="0" y1="0" x2="1" y2="1">
      <stop offset="0" stop-color="#fbf7ef"/>
      <stop offset="0.46" stop-color="#ded7ca"/>
      <stop offset="1" stop-color="#8c9d89"/>
    </linearGradient>
    <linearGradient id="screen" x1="0" y1="0" x2="1" y2="1">
      <stop offset="0" stop-color="#20201f"/>
      <stop offset="1" stop-color="#566c63"/>
    </linearGradient>
    <filter id="shadow" x="-20%" y="-20%" width="140%" height="140%">
      <feDropShadow dx="0" dy="28" stdDeviation="36" flood-color="#201c18" flood-opacity=".22"/>
    </filter>
  </defs>
  <rect width="1200" height="1080" fill="url(#bg)"/>
  <circle cx="1040" cy="120" r="170" fill="#f0b66f" opacity=".42"/>
  <circle cx="180" cy="900" r="220" fill="#3f6f89" opacity=".18"/>
  <g filter="url(#shadow)">
    <rect x="430" y="250" width="620" height="410" rx="28" fill="#1b1b1a"/>
    <rect x="464" y="286" width="552" height="338" rx="16" fill="url(#screen)"/>
    <rect x="380" y="676" width="720" height="42" rx="20" fill="#c9c0b2"/>
    <path d="M535 718h410l82 58H455z" fill="#a9a094"/>
  </g>
  <g opacity=".86">
    <rect x="530" y="348" width="144" height="16" rx="8" fill="#f5ede1"/>
    <rect x="530" y="392" width="338" height="10" rx="5" fill="#b8c9bd"/>
    <rect x="530" y="422" width="284" height="10" rx="5" fill="#b8c9bd"/>
    <rect x="530" y="474" width="154" height="86" rx="14" fill="#f0b66f"/>
    <rect x="712" y="474" width="212" height="86" rx="14" fill="#f5ede1"/>
  </g>
  <g filter="url(#shadow)">
    <rect x="135" y="530" width="290" height="390" rx="18" fill="#fffaf3"/>
    <rect x="176" y="586" width="128" height="14" rx="7" fill="#526d5a"/>
    <rect x="176" y="636" width="190" height="9" rx="4.5" fill="#d2c8bb"/>
    <rect x="176" y="670" width="146" height="9" rx="4.5" fill="#d2c8bb"/>
    <rect x="176" y="728" width="205" height="92" rx="10" fill="#e7dfd2"/>
    <path d="M206 793c37-42 72-42 106 0 20-24 39-28 58-12" fill="none" stroke="#3f6f89" stroke-width="10" stroke-linecap="round"/>
  </g>
  <g filter="url(#shadow)">
    <rect x="765" y="740" width="230" height="150" rx="26" fill="#526d5a"/>
    <circle cx="880" cy="814" r="44" fill="#f7f1e7" opacity=".9"/>
    <rect x="805" y="874" width="150" height="14" rx="7" fill="#f0b66f"/>
  </g>
  <path d="M80 225c155-62 274-71 357-26" fill="none" stroke="#ffffff" stroke-width="16" stroke-linecap="round" opacity=".42"/>
  <path d="M850 156c80 38 137 91 171 159" fill="none" stroke="#ffffff" stroke-width="12" stroke-linecap="round" opacity=".38"/>
</svg>
